{"title":"Youth Without Youth (2007) BDRip 1080p MediaClub","uid":10475993,"size":12557075115,"categoryP":"video","categoryS":"hd___movies","magnet":"?xt=urn:btih:29bd274a32d3113cd10da1fe831389e96b836f97&amp;dn=Youth+Without+Youth+%282007%29+BDRip+1080p+MediaClub&amp;tr=udp%3A%2F%2Ftracker.openbittorrent.com%3A80&amp;tr=udp%3A%2F%2Fopen.demonii.com%3A1337&amp;tr=udp%3A%2F%2Ftracker.coppersurfer.tk%3A6969&amp;tr=udp%3A%2F%2Fexodus.desync.com%3A6969","seeders":1,"leechers":0,"uploader":"neni69","files":1,"time":1404334345,"description":" &lt;a href=&quot; http://mediaclub.tv/&quot; rel=&quot;nofollow&quot; target=&quot;_NEW&quot;&gt; http://mediaclub.tv/&lt;/a&gt;   Welcome to MediaClub\n\n===================================================================\n\nUnique ID                      : 225298232831114904829651544121208905460 (0xA97EDC7E556447089251F0F119FA9EF4)\nComplete name                  : E:MCMolodost.bez.molodosti.2007.x264.BDRip(1080p)-MediaClubMolodost.bez.molodosti.2007.x264.BDRip(1080p)-MediaClub.mkv\nFormat                         : Matroska\nFormat version                 : Version 4 / Version 2\nFile size                      : 11.7 GiB\nDuration                       : 2h 4mn\nOverall bit rate               : 13.4 Mbps\nMovie name                     : -= Release MediaClub =-\nEncoded date                   : UTC 2014-06-24 19:28:14\nWriting application            : mkvmerge v6.4.1 ('Omega Point') built on Sep 16 2013 22:05:10\nWriting library                : libebml v1.3.0 + libmatroska v1.4.1\nAttachment                     : Yes\n\nVideo\nID                             : 1\nFormat                         : AVC\nFormat/Info                    : Advanced Video Codec\nFormat profile                 : &lt;a class=&quot;__cf_email__&quot; href=&quot;/cdn-cgi/l/email-protection&quot; data-cfemail=&quot;5810313f3018146c7669&quot;&gt;[email&amp;#160;protected]&lt;/a&gt;&lt;script cf-hash='f9e31' type=&quot;text/javascript&quot;&gt;\n/* &lt;![CDATA[ */!function(){try{var t=&quot;currentScript&quot;in document?document.currentScript:function(){for(var t=document.getElementsByTagName(&quot;script&quot;),e=t.length;e--;)if(t[e].getAttribute(&quot;cf-hash&quot;))return t[e]}();if(t&amp;&amp;t.previousSibling){var e,r,n,i,c=t.previousSibling,a=c.getAttribute(&quot;data-cfemail&quot;);if(a){for(e=&quot;&quot;,r=parseInt(a.substr(0,2),16),n=2;a.length-n;n+=2)i=parseInt(a.substr(n,2),16)^r,e+=String.fromCharCode(i);e=document.createTextNode(e),c.parentNode.replaceChild(e,c)}}}catch(u){}}();/* ]]&gt; */&lt;/script&gt;\nFormat settings, CABAC         : Yes\nFormat settings, ReFrames      : 5 frames\nCodec ID                       : V_MPEG4/ISO/AVC\nDuration                       : 2h 4mn\nBit rate                       : 11.9 Mbps\nWidth                          : 1 920 pixels\nHeight                         : 822 pixels\nDisplay aspect ratio           : 2.35:1\nFrame rate                     : 23.976 fps\nColor space                    : YUV\nChroma subsampling             : 4:2:0\nBit depth                      : 8 bits\nScan type                      : Progressive\nBits/(Pixel*Frame)             : 0.313\nStream size                    : 10.1 GiB (87%)\nTitle                          : Molodost.bez.molodosti.2007.x264.BDRip(1080p)-neni\nWriting library                : x264 core 142 r2409+42 04be48a tMod [8-bit@4:2:0 X86_64]\nEncoding settings              : cabac=1 / ref=5 / deblock=1:-3:-3 / analyse=0x3:0x133 / me=umh / subme=11 / psy=1 / fade_compensate=0.00 / psy_rd=1.00:0.10 / mixed_ref=1 / me_range=48 / chroma_me=1 / trellis=2 / 8x8dct=1 / cqm=0 / deadzone=21,11 / fast_pskip=1 / chroma_qp_offset=-3 / threads=9 / lookahead_threads=1 / sliced_threads=0 / nr=0 / decimate=0 / interlaced=0 / bluray_compat=0 / constrained_intra=0 / fgo=0 / bframes=8 / b_pyramid=2 / b_adapt=2 / b_bias=0 / direct=3 / weightb=1 / open_gop=0 / weightp=2 / keyint=250 / keyint_min=23 / scenecut=40 / intra_refresh=0 / rc=2pass / mbtree=0 / bitrate=11860 / ratetol=1.0 / qcomp=0.60 / qpmin=0:0:0 / qpmax=69:69:69 / qpstep=4 / cplxblur=20.0 / qblur=0.5 / ip_ratio=1.40 / pb_ratio=1.30 / aq=2:1.00 / aq-sensitivity=10.00 / aq-factor=1.00:1.00:1.00 / aq2=0 / aq3=0\nLanguage                       : English\nDefault                        : Yes\nForced                         : No\n\nAudio #1\nID                             : 2\nFormat                         : AC-3\nFormat/Info                    : Audio Coding 3\nMode extension                 : CM (complete main)\nFormat settings, Endianness    : Big\nCodec ID                       : A_AC3\nDuration                       : 2h 4mn\nBit rate mode                  : Constant\nBit rate                       : 448 Kbps\nChannel(s)                     : 6 channels\nChannel positions              : Front: L C R, Side: L R, LFE\nSampling rate                  : 48.0 KHz\nBit depth                      : 16 bits\nCompression mode               : Lossy\nStream size                    : 400 MiB (3%)\nTitle                          : Russian MVO | AC3 5.1 448 Kbps\nLanguage                       : Russian\nDefault                        : Yes\nForced                         : No\n\nAudio #2\nID                             : 3\nFormat                         : AC-3\nFormat/Info                    : Audio Coding 3\nMode extension                 : CM (complete main)\nFormat settings, Endianness    : Big\nCodec ID                       : A_AC3\nDuration                       : 2h 4mn\nBit rate mode                  : Constant\nBit rate                       : 448 Kbps\nChannel(s)                     : 6 channels\nChannel positions              : Front: L C R, Side: L R, LFE\nSampling rate                  : 48.0 KHz\nBit depth                      : 16 bits\nCompression mode               : Lossy\nStream size                    : 400 MiB (3%)\nTitle                          : Ukrainian MVO | AC3 5.1 448 Kbps\nLanguage                       : Ukrainian\nDefault                        : No\nForced                         : No\n\nAudio #3\nID                             : 4\nFormat                         : AC-3\nFormat/Info                    : Audio Coding 3\nMode extension                 : CM (complete main)\nFormat settings, Endianness    : Big\nCodec ID                       : A_AC3\nDuration                       : 2h 4mn\nBit rate mode                  : Constant\nBit rate                       : 640 Kbps\nChannel(s)                     : 6 channels\nChannel positions              : Front: L C R, Side: L R, LFE\nSampling rate                  : 48.0 KHz\nBit depth                      : 16 bits\nCompression mode               : Lossy\nStream size                    : 572 MiB (5%)\nTitle                          : English | AC3 5.1 640 Kbps\nLanguage                       : English\nDefault                        : No\nForced                         : No\n\nText #1\nID                             : 5\nFormat                         : UTF-8\nCodec ID                       : S_TEXT/UTF8\nCodec ID/Info                  : UTF-8 Plain Text\nLanguage                       : Russian\nDefault                        : No\nForced                         : No\n\nText #2\nID                             : 6\nFormat                         : UTF-8\nCodec ID                       : S_TEXT/UTF8\nCodec ID/Info                  : UTF-8 Plain Text\nLanguage                       : English\nDefault                        : No\nForced                         : No\n\nMenu\n00:00:00.000                   : en:Chapter 1\n00:05:00.000                   : en:Chapter 2\n00:10:00.000                   : en:Chapter 3\n00:15:00.000                   : en:Chapter 4\n00:20:00.000                   : en:Chapter 5\n00:25:00.000                   : en:Chapter 6\n00:30:00.000                   : en:Chapter 7\n00:35:00.000                   : en:Chapter 8\n00:40:00.000                   : en:Chapter 9\n00:45:00.000                   : en:Chapter 10\n00:50:00.000                   : en:Chapter 11\n00:55:00.000                   : en:Chapter 12\n01:00:00.000                   : en:Chapter 13\n01:05:00.000                   : en:Chapter 14\n01:10:00.000                   : en:Chapter 15\n01:15:00.000                   : en:Chapter 16\n01:20:00.000                   : en:Chapter 17\n01:25:00.000                   : en:Chapter 18\n01:30:00.000                   : en:Chapter 19\n01:35:00.000                   : en:Chapter 20\n01:40:00.000                   : en:Chapter 21\n01:45:00.000                   : en:Chapter 22\n01:50:00.000                   : en:Chapter 23\n01:55:00.000                   : en:Chapter 24\n02:00:00.000                   : en:Chapter 25","torrent":{"xt":"urn:btih:29bd274a32d3113cd10da1fe831389e96b836f97","amp;dn":"Youth+Without+Youth+%282007%29+BDRip+1080p+MediaClub","amp;tr":["udp%3A%2F%2Ftracker.openbittorrent.com%3A80","udp%3A%2F%2Fopen.demonii.com%3A1337","udp%3A%2F%2Ftracker.coppersurfer.tk%3A6969","udp%3A%2F%2Fexodus.desync.com%3A6969"],"infoHash":"29bd274a32d3113cd10da1fe831389e96b836f97","infoHashBuffer":{"type":"Buffer","data":[41,189,39,74,50,211,17,60,209,13,161,254,131,19,137,233,107,131,111,151]},"announce":[],"urlList":[]}}